<?xml version="1.0" standalone="no"?>
<!DOCTYPE svg PUBLIC "-//W3C//DTD SVG 20010904//EN"
 "http://www.w3.org/TR/2001/REC-SVG-20010904/DTD/svg10.dtd">
<svg version="1.0" xmlns="http://www.w3.org/2000/svg"
 width="512.000000pt" height="512.000000pt" viewBox="0 0 512.000000 512.000000"
 preserveAspectRatio="xMidYMid meet">
<metadata>
Created by potrace 1.11, written by Peter Selinger 2001-2013
</metadata>
<g transform="translate(0.000000,512.000000) scale(0.100000,-0.100000)"
fill="#000000" stroke="none">
<path d="M0 2560 l0 -2560 2560 0 2560 0 0 2560 0 2560 -2560 0 -2560 0 0
-2560z m3355 1220 c397 -102 670 -480 703 -975 l7 -100 80 -7 c239 -19 448
-164 555 -383 51 -103 70 -187 70 -306 0 -305 -189 -565 -485 -664 -104 -35
-201 -37 -1100 -33 -992 6 -954 3 -1120 83 -409 198 -559 709 -324 1101 110
183 323 328 534 365 163 28 370 -11 531 -100 115 -64 115 -62 -21 -127 -117
-56 -119 -56 -151 -41 -107 52 -272 63 -384 28 -237 -75 -394 -287 -393 -531
0 -204 112 -389 290 -483 130 -68 108 -67 1098 -67 768 0 899 2 950 15 239 63
392 304 341 543 -21 99 -67 181 -141 250 -113 105 -198 132 -422 132 l-153 0
8 48 c12 82 6 322 -10 397 -40 177 -137 371 -239 475 -160 163 -433 278 -774
325 -60 8 -50 16 63 45 171 44 339 48 487 10z m-455 -381 c281 -72 497 -289
570 -573 27 -108 27 -274 0 -382 -67 -261 -265 -484 -495 -557 -100 -31 -287
-31 -398 1 -85 24 -180 62 -225 90 -28 17 -24 17 162 17 213 0 265 9 391 70
199 96 334 299 360 543 9 77 -15 188 -62 282 -97 199 -325 327 -547 306 -119
-11 -221 -56 -338 -148 l-27 -21 -74 37 c-102 50 -248 86 -351 86 -155 -1
-246 -38 -351 -144 -103 -103 -165 -238 -225 -483 l-11 -43 -142 0 c-213 0
-301 -28 -412 -132 -74 -69 -120 -151 -141 -250 -51 -239 102 -480 341 -543
46 -12 118 -15 325 -15 l265 0 90 -106 c50 -58 91 -110 93 -115 5 -12 -651
-11 -744 1 -281 36 -514 243 -585 518 -23 92 -25 240 -3 332 44 190 179 363
354 454 95 50 162 68 279 75 l103 6 18 55 c98 314 298 527 560 597 138 37 377
17 535 -45 l49 -19 70 38 c176 94 371 117 566 68z"/>
</g>
</svg>
